<svg xmlns="http://www.w3.org/2000/svg" xmlns:xlink="http://www.w3.org/1999/xlink" viewBox="0 0 137 45"><defs><path id="a" d="M-11.3-6.7h159.9v62.4H-11.3z"/></defs><clipPath id="b"><use xlink:href="#a"/></clipPath><path d="M44.7 22.6c-1.2-.4-4.2-1.1-4.2-2.7 0-1.9 2.2-2.8 3.7-2.8 1.8 0 2.8 1.2 2.5 3-.1 1 .6 1.6 1.5 1.6 1.3-.1 1.6-1.4 1.4-2.3-.4-1.2-1.6-3-4.8-3.1-3.8-.1-6.4 2-6.4 4.4 0 2.3 2 3.8 5 4.8 2.5.8 4.3 1.7 4.3 3 0 2-2.2 3-3.6 3-2 0-3.6-1.3-3.3-4.3.1-1.1-.7-1.6-1.5-1.6-1.1 0-1.7.8-1.6 2 .4 3.1 3.4 4.6 5.7 4.7 4.3.2 6.4-2 6.4-4.4.1-2.5-1.6-3.9-5.1-5.3" clip-path="url(#b)" fill="#fff"/><defs><path id="c" d="M-11.3-6.7h159.9v62.4H-11.3z"/></defs><clipPath id="d"><use xlink:href="#c"/></clipPath><path d="M83.8 29.9V10.1c0-2.2-1.6-2.2-4.9-2.2v.8h1.7v21.1c0 .9-.3 1.4-.8 1.4H77v-9.8c0-1.4-.7-5-6-5-2.5 0-4.9.8-6.3 3.2-.7 1.2-.3 2.9 1.3 2.9.9 0 1.7-.5 1.7-1.7 0-2.2 1.3-3.6 3.3-3.6 2.3.1 2.7 1.9 2.7 5.1-4.1-.2-7.7 1-9 3.5l-.1.1c-1.6 3.5-4.5 5.4-6.6 5.4-.6 0-1.5-.1-2-.5-1.3-.9-2-2.3-2-5.7v-2.6c0-4.1.9-5.3 2.7-5.3 1.6 0 3.2 1.3 3 3.7-.1 1.1.6 1.8 1.5 1.8 1 0 1.8-.7 1.6-1.9-.5-3-3.6-4.4-6.2-4.4-3.4.1-6.1 2.3-6.1 8.2 0 5.1 3.2 7.8 6.8 7.8 3.9 0 5.8-1.2 7-3.2.8 2.9 4.5 3.1 6 3.1 1.1 0 2.7-.4 3.6-1.5.5 1.6 2.5 1.3 5.6 1.3h5.7v-.9h-1c-.3 0-.4-.6-.4-1.3m-10.1-.6c-.5 1.3-1.9 2.1-3.3 2.1-1.2 0-2.8-1-2.8-3.7 0-3.3 2.7-4.7 6.1-4.7v6.3z" clip-path="url(#d)" fill="#fff"/><defs><path id="e" d="M-11.3-6.7h159.9v62.4H-11.3z"/></defs><clipPath id="f"><use xlink:href="#e"/></clipPath><path d="M108.9 16.4c-1.4 0-2.6.7-3.5 1.6V7.4c0-2.2-1.5-2.2-4.8-2.1V6h1.7v25.1h-2.8v-9.8c0-1.4-.7-5-6-5-2.5 0-4.9.8-6.3 3.2-.7 1.2-.3 2.9 1.3 2.9.9 0 1.7-.5 1.7-1.7 0-2.2 1.3-3.6 3.3-3.6 2.3.1 2.7 1.9 2.7 5.1-5.1-.2-9.5 1.8-9.5 5.5 0 4.3 4.4 4.5 6.2 4.5 1.1 0 2.7-.4 3.6-1.5.5 1.3 1.1 1.3 4.6 1.3h1.6c1.3 0 2.6.1 2.8-.9a6.06 6.06 0 003.5 1.1c3.2 0 6.7-2 6.7-7.9-.3-5.3-3.6-7.9-6.8-7.9M96.1 29.3c-.5 1.3-1.9 2.1-3.3 2.1-1.2 0-2.8-1-2.8-3.7 0-3.3 2.7-4.7 6.1-4.7v6.3zm15.8-3.1c0 3.6-1.5 4.8-3.4 4.9-.9 0-1.9-.3-3.1-1.3V19.3c1.2-1.5 2.5-1.9 3.5-1.9 2.1 0 3.1 2 3.1 5.4-.1.1-.1 3.4-.1 3.4z" clip-path="url(#f)" fill="#fff"/><defs><path id="g" d="M-11.3-6.7h159.9v62.4H-11.3z"/></defs><clipPath id="h"><use xlink:href="#g"/></clipPath><path d="M122.1 31.2h-1c-.4 0-.5-.6-.5-1.3V4.5c0-2.2-1.6-2.2-4.9-2.2v.8h1.7v26.7c0 .9-.3 1.4-.8 1.4h-1v.8h6.5v-.8z" clip-path="url(#h)" fill="#fff"/><defs><path id="i" d="M-11.3-6.7h159.9v62.4H-11.3z"/></defs><clipPath id="j"><use xlink:href="#i"/></clipPath><path d="M129.3 32.4c3 0 4.9-1.2 6.1-4h-1.2c-.8 1.7-2.2 2.8-4.3 2.8-.6 0-1.5-.2-2.1-.5-1.2-.7-1.9-2.1-1.9-4.9v-1.3h7.3c1.8 0 2.7-1.2 2.7-2.7-.1-2.8-2.3-5.5-6.1-5.5-5 0-7.3 4.5-7.3 8.2 0 5.1 3.4 7.9 6.8 7.9M126 21.8c0-3.1 1.6-4.6 3.8-4.6s2.9 2.5 2.9 4.1c0 1-.4 2.4-1.7 2.4h-5v-1.9z" clip-path="url(#j)" fill="#fff"/><defs><path id="k" d="M-11.3-6.7h159.9v62.4H-11.3z"/></defs><clipPath id="l"><use xlink:href="#k"/></clipPath><path d="M93.2 41.6c-1.7 0-2.3-1.2-2.4-2.3 0-1.1.7-2.4 2.4-2.4.6 0 1.2.2 1.7.6l.9-.8c-.7-.7-1.6-1-2.5-1-2.5 0-3.6 1.8-3.6 3.6s1.1 3.5 3.6 3.5c1 0 1.9-.3 2.6-1l-.9-.9c-.6.4-1.2.7-1.8.7" clip-path="url(#l)" fill="#fff"/><defs><path id="m" d="M-11.3-6.7h159.9v62.4H-11.3z"/></defs><clipPath id="n"><use xlink:href="#m"/></clipPath><path d="M99.5 35.8l-3.1 6.9h1.4l.6-1.3h3.6l.6 1.3h1.4l-3.1-6.9h-1.4zm-.5 4.3l1.3-2.9 1.3 2.9H99z" clip-path="url(#n)" fill="#fff"/><defs><path id="o" d="M-11.3-6.7h159.9v62.4H-11.3z"/></defs><clipPath id="p"><use xlink:href="#o"/></clipPath><path d="M108.7 35.8h-3.2v6.9h1.3v-2h1.9c3.4-.1 3.4-4.9 0-4.9m0 3.6h-1.9V37h1.9c1.6 0 1.7 2.4 0 2.4" clip-path="url(#p)" fill="#fff"/><defs><path id="q" d="M-11.3-6.7h159.9v62.4H-11.3z"/></defs><clipPath id="r"><use xlink:href="#q"/></clipPath><path d="M112.9 35.8h1.3v6.9h-1.3v-6.9z" clip-path="url(#r)" fill="#fff"/><defs><path id="s" d="M-11.3-6.7h159.9v62.4H-11.3z"/></defs><clipPath id="t"><use xlink:href="#s"/></clipPath><path d="M116 37h2.2v5.7h1.3V37h2.2v-1.2H116V37z" clip-path="url(#t)" fill="#fff"/><defs><path id="u" d="M-11.3-6.7h159.9v62.4H-11.3z"/></defs><clipPath id="v"><use xlink:href="#u"/></clipPath><path d="M125.1 35.8l-3.1 6.9h1.4l.6-1.3h3.6l.6 1.3h1.4l-3.1-6.9h-1.4zm-.6 4.3l1.3-2.9 1.3 2.9h-2.6z" clip-path="url(#v)" fill="#fff"/><defs><path id="w" d="M-11.3-6.7h159.9v62.4H-11.3z"/></defs><clipPath id="x"><use xlink:href="#w"/></clipPath><path d="M132.3 41.4v-5.7H131v6.9h4.8v-1.2h-3.5z" clip-path="url(#x)" fill="#fff"/><defs><path id="y" d="M1.3 29.2c0 1.5 1.2 2.8 2.8 2.8h8.6L1.3 20.6v8.6z"/></defs><clipPath id="z"><use xlink:href="#y"/></clipPath><path d="M1.3 20.6h11.4V32H1.3V20.6z" clip-path="url(#z)" fill="#28ebcf"/><defs><path id="A" d="M15.9 6.1l11.3 11.3V8.9c0-1.5-1.2-2.8-2.8-2.8h-8.5z"/></defs><clipPath id="B"><use xlink:href="#A"/></clipPath><path d="M15.9 6.1h11.3v11.3H15.9V6.1z" clip-path="url(#B)" fill="#28ebcf"/><defs><path id="C" d="M6.8 6.1c-3 0-5.5 2.5-5.5 5.5a5.52 5.52 0 001.6 3.9l14.9 14.9c2.1 2.1 5.6 2.1 7.8 0a5.52 5.52 0 001.6-3.9v-.1a5.52 5.52 0 00-1.6-3.9L10.8 7.7c-1-1-2.4-1.6-4-1.6z"/></defs><clipPath id="D"><use xlink:href="#C"/></clipPath><path d="M1.3 6.1h25.9V32H1.3V6.1z" clip-path="url(#D)" fill="#28ebcf"/><defs><path id="E" d="M-11.3-6.7h159.9v62.4H-11.3z"/></defs><clipPath id="F"><use xlink:href="#E"/></clipPath><path d="M87.7 42c0 .4-.3.8-.8.8-.4 0-.8-.3-.8-.8 0-.4.3-.8.8-.8.4.1.8.4.8.8" clip-path="url(#F)" fill="#fff"/></svg>